<svg xmlns="http://www.w3.org/2000/svg" viewBox="0 0 651.33 363.48"><defs><style>.cls-1,.cls-11,.cls-12,.cls-22,.cls-31,.cls-33,.cls-34,.cls-39,.cls-42,.cls-43,.cls-51,.cls-6{fill:none;}.cls-1,.cls-43,.cls-44{stroke:#dee3fc;}.cls-1,.cls-11,.cls-22,.cls-28,.cls-31,.cls-32,.cls-33,.cls-34,.cls-39,.cls-42,.cls-43,.cls-44,.cls-51{stroke-miterlimit:10;}.cls-1{stroke-width:0.79px;}.cls-2{fill:#dee3fc;}.cls-3{fill:#a4afff;}.cls-32,.cls-4{fill:#fff;}.cls-5{fill:#3945ba;}.cls-6{stroke:#698bd1;stroke-dasharray:2.84;}.cls-12,.cls-34,.cls-39,.cls-42,.cls-43,.cls-51,.cls-6{stroke-linecap:round;}.cls-12,.cls-6{stroke-linejoin:round;}.cls-7{fill:#4b5a9b;}.cls-8{fill:#7f95f4;}.cls-9{fill:#b2c1f9;}.cls-10{fill:#3052ce;}.cls-11,.cls-12,.cls-32,.cls-33,.cls-34{stroke:#495ad6;}.cls-11,.cls-31,.cls-32,.cls-39{stroke-width:0.9px;}.cls-12,.cls-33,.cls-34{stroke-width:1.67px;}.cls-13{fill:#f0f4ff;}.cls-14{fill:#3b47bc;}.cls-15{fill:#495ad6;}.cls-16{fill:#281616;}.cls-17{fill:#002c54;}.cls-18{fill:#052635;}.cls-19{fill:#e5918f;}.cls-20{fill:#c7e5f2;}.cls-21{fill:#cc6362;}.cls-22,.cls-31,.cls-39,.cls-42,.cls-51{stroke:#fff;}.cls-22{stroke-width:0.5px;}.cls-23{opacity:0.5;}.cls-24{fill:#375f84;}.cls-25,.cls-28{fill:#231f20;}.cls-26{fill:#e49191;}.cls-27{fill:#467cdb;}.cls-28{stroke:#231f20;}.cls-29{fill:#faee39;}.cls-30{fill:#d19b2a;}.cls-35{fill:#d32e27;}.cls-36{fill:#d32027;}.cls-37{fill:#7e5aa6;}.cls-38{fill:#193091;}.cls-40{fill:#6589d1;}.cls-41{fill:#3b5fb7;}.cls-42{stroke-width:2px;}.cls-44,.cls-45{fill:#7e89fd;}.cls-46{fill:#1e562a;}.cls-47{fill:#1c3f1c;}.cls-48{fill:#236b35;}.cls-49{fill:#1f3f1c;}.cls-50{fill:#3e2e13;}.cls-51{stroke-width:1.11px;}</style></defs><g id="Layer_2" data-name="Layer 2"><g id="OBJECTS"><path class="cls-1" d="M220.55,86.38V76.13a1.81,1.81,0,0,0-1.82-1.82H216.1A1.65,1.65,0,0,1,214.47,73,36.43,36.43,0,0,0,209.9,62a1.69,1.69,0,0,1,.22-2.1L212,58a1.82,1.82,0,0,0,0-2.57l-7.25-7.25a1.84,1.84,0,0,0-2.57,0L200.31,50a1.69,1.69,0,0,1-2.1.22,36.08,36.08,0,0,0-11.08-4.57,1.68,1.68,0,0,1-1.28-1.63V41.43A1.82,1.82,0,0,0,184,39.61H173.79A1.82,1.82,0,0,0,172,41.43v2.63a1.67,1.67,0,0,1-1.28,1.63,36.08,36.08,0,0,0-11.08,4.57,1.71,1.71,0,0,1-2.1-.22l-1.85-1.86a1.84,1.84,0,0,0-2.57,0l-7.25,7.25a1.82,1.82,0,0,0,0,2.57l1.86,1.85a1.69,1.69,0,0,1,.22,2.1A36.18,36.18,0,0,0,143.35,73a1.66,1.66,0,0,1-1.63,1.28h-2.63a1.81,1.81,0,0,0-1.82,1.82V86.38a1.81,1.81,0,0,0,1.82,1.81h2.63a1.66,1.66,0,0,1,1.63,1.28,36.32,36.32,0,0,0,4.57,11.08,1.69,1.69,0,0,1-.22,2.1l-1.86,1.85a1.82,1.82,0,0,0,0,2.57l7.25,7.25a1.82,1.82,0,0,0,2.57,0l1.86-1.86a1.68,1.68,0,0,1,2.09-.22,36.16,36.16,0,0,0,11.08,4.56,1.67,1.67,0,0,1,1.28,1.63v2.64a1.81,1.81,0,0,0,1.82,1.82H184a1.81,1.81,0,0,0,1.81-1.82v-2.64a1.67,1.67,0,0,1,1.28-1.63,36.41,36.41,0,0,0,11.08-4.56,1.68,1.68,0,0,1,2.09.22l1.86,1.86a1.82,1.82,0,0,0,2.57,0l7.25-7.25a1.82,1.82,0,0,0,0-2.57l-1.86-1.85a1.69,1.69,0,0,1-.22-2.1,36.43,36.43,0,0,0,4.57-11.08,1.66,1.66,0,0,1,1.62-1.28h2.64A1.81,1.81,0,0,0,220.55,86.38Zm-41.64,23.77a28.9,28.9,0,1,1,28.88-28.91A28.89,28.89,0,0,1,178.91,110.15Z"/><path class="cls-2" d="M267.69,121.07v-7a1.23,1.23,0,0,0-1.24-1.24h-1.79a1.13,1.13,0,0,1-1.11-.87,24.89,24.89,0,0,0-3.12-7.55,1.16,1.16,0,0,1,.15-1.43l1.27-1.27a1.24,1.24,0,0,0,0-1.75l-4.94-4.93a1.23,1.23,0,0,0-1.75,0l-1.26,1.26a1.16,1.16,0,0,1-1.43.15,25,25,0,0,0-7.56-3.12,1.13,1.13,0,0,1-.87-1.11V90.44a1.24,1.24,0,0,0-1.23-1.24h-7a1.25,1.25,0,0,0-1.24,1.24v1.79a1.12,1.12,0,0,1-.87,1.11,24.89,24.89,0,0,0-7.55,3.12,1.16,1.16,0,0,1-1.43-.15l-1.26-1.26a1.23,1.23,0,0,0-1.75,0L216.78,100a1.24,1.24,0,0,0,0,1.75L218,103a1.15,1.15,0,0,1,.15,1.43,24.62,24.62,0,0,0-3.11,7.55,1.14,1.14,0,0,1-1.11.87h-1.79a1.23,1.23,0,0,0-1.24,1.24v7a1.23,1.23,0,0,0,1.24,1.24H214a1.14,1.14,0,0,1,1.11.87,24.87,24.87,0,0,0,3.11,7.55,1.13,1.13,0,0,1-.15,1.43l-1.26,1.27a1.24,1.24,0,0,0,0,1.75l4.94,4.94a1.24,1.24,0,0,0,1.75,0l1.26-1.27a1.15,1.15,0,0,1,1.43-.15,24.72,24.72,0,0,0,7.55,3.11,1.13,1.13,0,0,1,.87,1.11v1.8a1.25,1.25,0,0,0,1.24,1.24h7a1.24,1.24,0,0,0,1.23-1.24v-1.8a1.13,1.13,0,0,1,.88-1.11,24.56,24.56,0,0,0,7.54-3.11,1.15,1.15,0,0,1,1.43.15l1.27,1.27a1.24,1.24,0,0,0,1.75,0l4.94-4.94a1.24,1.24,0,0,0,0-1.75l-1.27-1.27a1.16,1.16,0,0,1-.15-1.43,24.89,24.89,0,0,0,3.12-7.55,1.13,1.13,0,0,1,1.11-.87h1.79A1.23,1.23,0,0,0,267.69,121.07Zm-28.38,15.09a18.58,18.58,0,1,1,18.58-18.58A18.57,18.57,0,0,1,239.31,136.16Z"/><circle class="cls-3" cx="136.16" cy="302.63" r="3.39"/><circle class="cls-3" cx="589.79" cy="210.11" r="3.39"/><circle class="cls-3" cx="583.02" cy="89.2" r="3.39"/><circle class="cls-3" cx="461.27" cy="48.11" r="2.12"/><path class="cls-3" d="M149.41,19.82a2.13,2.13,0,1,1-2.12-2.13A2.12,2.12,0,0,1,149.41,19.82Z"/><path class="cls-3" d="M196.42,150.61a2.12,2.12,0,1,1-2.12-2.12A2.13,2.13,0,0,1,196.42,150.61Z"/><path class="cls-3" d="M118.5,306a2.13,2.13,0,1,1-2.12-2.12A2.12,2.12,0,0,1,118.5,306Z"/><circle class="cls-3" cx="540.12" cy="304.64" r="3.39"/><circle class="cls-3" cx="612.12" cy="304.64" r="3.39"/><circle class="cls-3" cx="207.79" cy="10.58" r="3.39"/><path class="cls-3" d="M441.42,164.64a4.53,4.53,0,1,1-4.53-4.53A4.53,4.53,0,0,1,441.42,164.64Z"/><path class="cls-3" d="M107.25,108.62a4.53,4.53,0,1,1-4.53-4.53A4.53,4.53,0,0,1,107.25,108.62Z"/><rect class="cls-4" x="88.14" y="33.96" width="7.03" height="7.03" rx="0.66"/><rect class="cls-4" x="97.54" y="33.96" width="7.03" height="7.03" rx="0.66"/><rect class="cls-4" x="106.94" y="33.96" width="7.03" height="7.03" rx="0.66"/><rect class="cls-2" x="566.72" y="280.69" width="7.03" height="7.03" rx="0.66"/><rect class="cls-2" x="576.12" y="280.69" width="7.03" height="7.03" rx="0.66"/><rect class="cls-2" x="585.52" y="280.69" width="7.03" height="7.03" rx="0.66"/><rect class="cls-2" x="132.25" y="276.84" width="7.03" height="7.03" rx="0.66"/><rect class="cls-2" x="141.65" y="276.84" width="7.03" height="7.03" rx="0.66"/><rect class="cls-2" x="151.05" y="276.84" width="7.03" height="7.03" rx="0.66"/><rect class="cls-5" x="236.67" y="0.39" width="178" height="343.86" rx="21.35"/><rect class="cls-4" x="240" y="3.41" width="171.33" height="335.96" rx="18.7"/><path class="cls-2" d="M403.83,21.52V319.73a12.66,12.66,0,0,1-12.66,12.67h-131a12.66,12.66,0,0,1-12.66-12.67V21.52A12.66,12.66,0,0,1,260.16,8.85H282a3.21,3.21,0,0,1,2.86,1.77l2.32,4.63a6.26,6.26,0,0,0,5.62,3.48h65.72a6.26,6.26,0,0,0,5.61-3.48l2.32-4.63a3.21,3.21,0,0,1,2.86-1.77h21.85A12.66,12.66,0,0,1,403.83,21.52Z"/><path class="cls-2" d="M353.25,13.31H300.31a2.22,2.22,0,0,1-2.22-2.23h0a2.22,2.22,0,0,1,2.22-2.23h52.94a2.23,2.23,0,0,1,2.23,2.23h0A2.23,2.23,0,0,1,353.25,13.31Z"/><rect class="cls-6" x="256.87" y="263.7" width="134.55" height="58.35" rx="8.38"/><rect class="cls-6" x="312.59" y="137.89" width="70.52" height="40.97" rx="6.04"/><rect class="cls-7" x="261.76" y="188.69" width="135.08" height="65.3" rx="7.2"/><path class="cls-8" d="M391.42,190.6v50.93a7.18,7.18,0,0,1-7.19,7.18H264.06a7.18,7.18,0,0,1-7.19-7.18V190.6a7.19,7.19,0,0,1,7.19-7.19H384.23A7.19,7.19,0,0,1,391.42,190.6Z"/><rect class="cls-4" x="263.08" y="198.27" width="45.12" height="45.12" rx="4.86"/><path class="cls-9" d="M345.31,204H314.13a1.53,1.53,0,0,1-1.54-1.53h0a1.54,1.54,0,0,1,1.54-1.54h31.18a1.54,1.54,0,0,1,1.53,1.54h0A1.53,1.53,0,0,1,345.31,204Z"/><path class="cls-9" d="M331.1,210.11h-17a1.53,1.53,0,0,1-1.54-1.53h0a1.54,1.54,0,0,1,1.54-1.54h17a1.54,1.54,0,0,1,1.53,1.54h0A1.53,1.53,0,0,1,331.1,210.11Z"/><path class="cls-9" d="M383.26,210.11H337.34a1.52,1.52,0,0,1-1.53-1.53h0a1.53,1.53,0,0,1,1.53-1.54h45.92a1.54,1.54,0,0,1,1.54,1.54h0A1.53,1.53,0,0,1,383.26,210.11Z"/><path class="cls-9" d="M340.38,216.24H314.13a1.54,1.54,0,0,1-1.54-1.53h0a1.54,1.54,0,0,1,1.54-1.54h26.25a1.54,1.54,0,0,1,1.54,1.54h0A1.54,1.54,0,0,1,340.38,216.24Z"/><path class="cls-9" d="M362.67,216.24H346.16a1.54,1.54,0,0,1-1.53-1.53h0a1.54,1.54,0,0,1,1.53-1.54h16.51a1.54,1.54,0,0,1,1.54,1.54h0A1.54,1.54,0,0,1,362.67,216.24Z"/><path class="cls-9" d="M383.26,216.24h-15.2a1.54,1.54,0,0,1-1.53-1.53h0a1.54,1.54,0,0,1,1.53-1.54h15.2a1.54,1.54,0,0,1,1.54,1.54h0A1.54,1.54,0,0,1,383.26,216.24Z"/><path class="cls-9" d="M383.26,222.37H314.13a1.54,1.54,0,0,1-1.54-1.53h0a1.54,1.54,0,0,1,1.54-1.54h69.13a1.54,1.54,0,0,1,1.54,1.54h0A1.54,1.54,0,0,1,383.26,222.37Z"/><path class="cls-9" d="M352.18,228.5H314.13a1.54,1.54,0,0,1-1.54-1.53h0a1.54,1.54,0,0,1,1.54-1.54h38.05a1.53,1.53,0,0,1,1.53,1.54h0A1.53,1.53,0,0,1,352.18,228.5Z"/><path class="cls-9" d="M383.26,228.5H358.31a1.53,1.53,0,0,1-1.53-1.53h0a1.53,1.53,0,0,1,1.53-1.54h24.95A1.54,1.54,0,0,1,384.8,227h0A1.54,1.54,0,0,1,383.26,228.5Z"/><path class="cls-9" d="M336.48,234.63H314.13a1.54,1.54,0,0,1-1.54-1.54h0a1.54,1.54,0,0,1,1.54-1.53h22.35a1.54,1.54,0,0,1,1.54,1.53h0A1.54,1.54,0,0,1,336.48,234.63Z"/><path class="cls-9" d="M364.89,234.63H342.53a1.54,1.54,0,0,1-1.53-1.54h0a1.54,1.54,0,0,1,1.53-1.53h22.36a1.54,1.54,0,0,1,1.54,1.53h0A1.54,1.54,0,0,1,364.89,234.63Z"/><path class="cls-9" d="M383.26,234.63h-13a1.53,1.53,0,0,1-1.53-1.54h0a1.53,1.53,0,0,1,1.53-1.53h13a1.54,1.54,0,0,1,1.54,1.53h0A1.54,1.54,0,0,1,383.26,234.63Z"/><path class="cls-9" d="M345.31,240.76H314.13a1.54,1.54,0,0,1-1.54-1.54h0a1.54,1.54,0,0,1,1.54-1.53h31.18a1.54,1.54,0,0,1,1.53,1.53h0A1.54,1.54,0,0,1,345.31,240.76Z"/><path class="cls-9" d="M383.26,204H352.09a1.53,1.53,0,0,1-1.54-1.53h0a1.54,1.54,0,0,1,1.54-1.54h31.17a1.54,1.54,0,0,1,1.54,1.54h0A1.53,1.53,0,0,1,383.26,204Z"/><path class="cls-10" d="M391.42,190.6v2.14H256.87V190.6a7.19,7.19,0,0,1,7.19-7.19H384.23A7.19,7.19,0,0,1,391.42,190.6Z"/><path class="cls-2" d="M366.06,188.24a1.67,1.67,0,1,1-1.67-1.67A1.67,1.67,0,0,1,366.06,188.24Z"/><path class="cls-2" d="M374.58,188.24a1.67,1.67,0,1,1-1.66-1.67A1.66,1.66,0,0,1,374.58,188.24Z"/><path class="cls-2" d="M383.11,188.24a1.67,1.67,0,1,1-1.66-1.67A1.66,1.66,0,0,1,383.11,188.24Z"/><rect class="cls-11" x="264.74" y="137.93" width="40.93" height="40.93" rx="7.15"/><polyline class="cls-12" points="278.82 152.48 272.93 158.37 278.87 164.32"/><polyline class="cls-12" points="291.59 152.48 297.49 158.37 291.55 164.32"/><line class="cls-12" x1="287.97" y1="152.48" x2="282.45" y2="164.32"/><rect class="cls-9" x="256.87" y="29.85" width="134.55" height="99.63" rx="8.18"/><circle class="cls-13" cx="364.17" cy="56.16" r="19.5"/><path class="cls-4" d="M336,129.48H265.05a8.18,8.18,0,0,1-8.18-8.18V108.19l31-53.75a4.21,4.21,0,0,1,7.3,0L318.63,95,336,125.16A4.14,4.14,0,0,1,336,129.48Z"/><path class="cls-13" d="M366.54,129.48H298.73L318.63,95l10.72-18.57a3.79,3.79,0,0,1,6.57,0Z"/><rect class="cls-14" x="448.76" y="284.21" width="52.28" height="78.56"/><rect class="cls-15" x="501.04" y="284.21" width="20.02" height="78.56" transform="translate(1022.09 646.97) rotate(180)"/><rect class="cls-9" x="503.9" y="287.22" width="14.7" height="2.51"/><rect class="cls-9" x="503.9" y="292.61" width="14.7" height="2.51"/><rect class="cls-9" x="503.9" y="298" width="14.7" height="2.51"/><rect class="cls-9" x="503.9" y="303.38" width="14.7" height="2.51"/><rect class="cls-9" x="503.9" y="308.77" width="14.7" height="2.51"/><rect class="cls-9" x="503.9" y="314.15" width="14.7" height="2.51"/><rect class="cls-9" x="503.9" y="319.54" width="14.7" height="2.51"/><rect class="cls-9" x="503.9" y="324.93" width="14.7" height="2.51"/><rect class="cls-9" x="503.9" y="330.31" width="14.7" height="2.51"/><rect class="cls-9" x="503.9" y="335.7" width="14.7" height="2.51"/><rect class="cls-9" x="503.9" y="341.09" width="14.7" height="2.51"/><rect class="cls-9" x="503.9" y="346.47" width="14.7" height="2.51"/><rect class="cls-9" x="503.9" y="351.86" width="14.7" height="2.51"/><rect class="cls-9" x="503.9" y="357.24" width="14.7" height="2.51"/><path class="cls-16" d="M440.27,362.77h26.57s1.48-4.73-1.74-10.59c0,0-2.14,1.71-8.54.55a28.41,28.41,0,0,1-4.52,3.16C450.18,356.79,439.55,358.87,440.27,362.77Z"/><path class="cls-17" d="M442.12,287.85c1.72,10.24,9.63,44.88,13,65.35a31.33,31.33,0,0,0,10.79-.55c-.31-7.14-.92-24.21-.85-31.69.12-12.65.71-29.34-4.86-38.49l-18.72,1.47c.11,1,.21,1.8.3,2.37S442,287.37,442.12,287.85Z"/><path class="cls-16" d="M392.21,362.77h26.57s1.48-4.73-1.73-10.59c0,0-2.14,1.71-8.55.55a28.41,28.41,0,0,1-4.52,3.16C402.13,356.79,391.5,358.87,392.21,362.77Z"/><path class="cls-18" d="M407.73,352.6a30.6,30.6,0,0,0,10.5.94c1.41-8.23,3.64-26.33,5.65-34.81,3.12-13.19,6.17-31.32,4.05-37.79l-18.42-4.63C409.45,276.9,408,332.4,407.73,352.6Z"/><path class="cls-18" d="M481.05,257.43h0c-.36-3.64-.79-6.3-.79-6.3l-20.58,5-17.48,4c-6.48,1.44-14.31,3.18-21.22,4.74-7.74,1.76-12.88,7.65-11.19,15.4l1.94,9.41c10.84-.15,61.77-5,66.13-7.23C482.77,280,484.25,271.2,481.05,257.43Z"/><path class="cls-17" d="M511.77,257.43h0a28.4,28.4,0,0,0-2.15-7.55l-19.23,6.29-17.48,4c-6.48,1.44-14.31,3.18-21.21,4.74-7.75,1.76-12.89,7.65-11.19,15.4l1.94,9.41c10.83-.15,56.11-1.73,66.12-7.23C513.4,279.81,515,271.2,511.77,257.43Z"/><path class="cls-19" d="M454.16,227.94s9.14-4.13,11.66,0c1.38,2.26.43,6.48-2.69,8.24s-20.74,9.22-37.36,13.38a41.81,41.81,0,0,0-1.86-4.75,87.38,87.38,0,0,0,14.88-8.3,94.19,94.19,0,0,1,15.37-8.58Z"/><path class="cls-19" d="M456.45,199.39l-7.84,31.29s.81,7.91,8.8,4S470.7,205.9,470.7,205.9Z"/><path class="cls-4" d="M469.7,216.89c-1-.23-1.89-.49-2.78-.76s-1.79-.54-2.61-.83a44,44,0,0,1-11.47-5.62c2.34-10.17,5.16-17,7.67-21.51a3.54,3.54,0,0,0,.19-.33l.2-.34a19.61,19.61,0,0,1,5.45-5.67l.66-.45.92,16.33.16,1.68Z"/><path class="cls-20" d="M469.7,216.89c-1-.23-1.89-.49-2.78-.76s-1.79-.54-2.61-.83c1.56-11,3-17.92,3-17.92l.81,2Z"/><path class="cls-4" d="M516,188.64c-.19,4.84-1,12.6-1.77,20.41-.24,2.47-.46,4.95-.65,7.35-.13,1.49-2.38,9.46-2.47,10.89-.4,6.82-3.75,11.92-.58,22.31a16.31,16.31,0,0,1,.95,4.79c0,.71-.93,1.46-1.3,1.66-1.32.77-3.93,1.3-7.1,1.69h0a183.47,183.47,0,0,1-19.7.91c-6.81,0-17-1.08-18.32-2.8-1.18-1.57-.09-3.86.47-7,2.51-14.23,1.61-21.65,1.46-31.93,0-.25,0-.51,0-.78-.26-15.84-1.31-29.41-.57-34.3l.66-.45c1.08-.74,2.14-1.4,3.16-2a2.68,2.68,0,0,0,.31-.18l.94-.51a3,3,0,0,1,.36-.18,75.87,75.87,0,0,1,7.6-3l.65-.22q2.73-.16,5.92-.07c1.85.05,4.68.3,7.76.7h0a78.24,78.24,0,0,1,10.3,1.93l.05,0a21.18,21.18,0,0,1,8.1,5.67A27.4,27.4,0,0,1,516,188.64Z"/><path class="cls-20" d="M510.48,249.6a16.31,16.31,0,0,1,.95,4.79c0,.71-.93,1.46-1.3,1.66-1.32.77-3.93,1.3-7.1,1.69,1.31-.15,3.56-2.22,3.56-4.08,0-1.31-1.69-10.13-1.23-15.83s1.4-14.73-.36-22-3.44-16.77-3.44-16.77l9.93,6s1.28,1.79,2.69,4c-.24,2.47-.46,4.95-.65,7.35C513.4,217.89,507.31,239.21,510.48,249.6Z"/><path class="cls-17" d="M466.8,146.76s.86,10.38,4.3,11.08,2.6-3.71,2.6-3.71l-.48-4.93Z"/><path class="cls-19" d="M482.67,184.4c-6.74-.81-4.22-7.36-3.29-8.86.24-.08,1.4-.44,1.49-.49s0,0,0,0a1.85,1.85,0,0,0,.53-.78c.65-1.72.35-5.17.33-5.39h0v-.62c.11-.42.22-.81.31-1.17l3.55-2.79,7.5-5.9s-2,9.87-.39,16.08a2.32,2.32,0,0,0,1,1.5s0,0,0,0a1.89,1.89,0,0,0,.75.27C496.3,177.08,493.74,185.71,482.67,184.4Z"/><path class="cls-21" d="M488.62,164.64a11.21,11.21,0,0,1-7.21,9.61c.66-1.72.36-5.16.34-5.38l3-2.35Z"/><path class="cls-19" d="M468.44,148.24s1.56,21.54,7.38,23.38a15.14,15.14,0,0,0,12.73-6.47c1.54-2.06,3.48-2.52,4.11-5,1-4,2.48-11.51.63-16C490.65,137.73,468.69,132.64,468.44,148.24Z"/><path class="cls-17" d="M493.38,140.58c-.1-3.92-4.06-5.38-4.06-5.38-3.95-1.85-12.14-1-20.59.84-2,.44-4.47-.78-5.85.18-1.67,1.16,0,6.46,0,6.46,3.26,9.87,15.25,6.66,18.86,5.44.86,2.55.74,6.08,2.88,7.9,1.22,1,3.34,1.07,5.49.71.26.5,1.26,1,1.46,1.64.68,2.31.58,5.91.56,8.7l1-.5C493.27,165.82,503.79,140.9,493.38,140.58Z"/><path class="cls-22" d="M474.41,155.49c.31,1.79-.58,3.44-2,3.67s-2.77-1-3.07-2.81.58-3.43,2-3.67S474.11,153.7,474.41,155.49Z"/><path class="cls-22" d="M481.44,154.18c.31,1.79-.58,3.43-2,3.67s-2.77-1-3.07-2.81.58-3.43,2-3.67S481.14,152.39,481.44,154.18Z"/><path class="cls-22" d="M474.41,155.49s.31-.5,1.93-.36"/><line class="cls-22" x1="481.5" y1="154.61" x2="487.51" y2="153.65"/><path class="cls-19" d="M488,161.28c4.14,1.58,5.43-8.6,1.5-9.06-3-.34-3.1,3.82-3.1,3.82S485.59,160.37,488,161.28Z"/><g class="cls-23"><path class="cls-21" d="M489.32,153.76a4.13,4.13,0,0,0-1,2.47,8.69,8.69,0,0,0,0,1.35c.05.47.1.94.14,1.45-.15-.2-.27-.42-.41-.64a7.29,7.29,0,0,1-.28-.7,3.93,3.93,0,0,1-.17-1.53,3,3,0,0,1,.52-1.48A2.18,2.18,0,0,1,489.32,153.76Z"/><path class="cls-21" d="M490,155.69a2.14,2.14,0,0,0-1.13.57,2.08,2.08,0,0,0-.54,1.05l-.68-.25a2.57,2.57,0,0,1,1-1.09A2.34,2.34,0,0,1,490,155.69Z"/></g><path class="cls-19" d="M527.74,232.06h0c-1.82,2.11-8.72,3.65-12,.73-1-.93-2.22-3.38-3.38-6.42a199.82,199.82,0,0,1-5.73-19.4l15.45-7.9s2,8.91,3.69,17.38l0,.24c.56,2.71,1.08,5.38,1.48,7.67a.52.52,0,0,1,0,.18A32.36,32.36,0,0,1,527.74,232.06Z"/><path class="cls-4" d="M500.76,196.16c1.49,6.2,6.18,18,6.18,18a24.39,24.39,0,0,0,11.33-1.37,20.85,20.85,0,0,0,7.22-4.69s-3.11-8.73-5.9-15c-2.5-5.64-4-7.74-5.09-8.86a24.6,24.6,0,0,0-6.13-4.56Z"/><path class="cls-4" d="M520.29,200.21l-9.07-3.91-7.14-18.4s1.31.39,3,1.09h0l.23.09a.59.59,0,0,1,.14.06c1.54.72,7.51,4.24,11.65,17,0,.11.06.22.1.33.44,1.47.76,2.66.93,3.27a1.21,1.21,0,0,1,.05.18C520.25,200,520.26,200.13,520.29,200.21Z"/><path class="cls-19" d="M527.74,232.06h0c-.13,1.13-.44,1.94-1,2.23l-1.45.87a76.26,76.26,0,0,1-9.57,5,345.88,345.88,0,0,1-33.44,12,38.22,38.22,0,0,0-2-4.66,87.5,87.5,0,0,0,14.51-8.91c7.21-5.5,17.57-12.18,17.57-12.18l2.62-3.08s9.3-8.56,10.79-6.84l0,.24c.22.89,1,4.17,1.48,7.67a.52.52,0,0,1,0,.18A32.36,32.36,0,0,1,527.74,232.06Z"/><path class="cls-19" d="M481.31,246.94a5.74,5.74,0,0,1-3.67.71c-1-.21-1.44-.63-2.2-.77a16.88,16.88,0,0,1-3.78-.87c-1-.49-1.39-.55-1.35.46s2,1.87,2.54,2.15a5,5,0,0,1,1.28,1.28c.07.11-3.29,1.87-4.19,1.51a2.64,2.64,0,0,0-.12,1.26c.16.45.85.61.9.84s-.16.69,0,1.05.77.36,1,.95,0,.59.15,1.2,1,.72,1.11,1,.07.68.4.9,3.35-.76,4.45-1.23,4.05-4.72,7.31-6.16Z"/><path class="cls-24" d="M496.75,265.88h-23.5v-2.3h23.5a1.16,1.16,0,0,1,1.15,1.15h0A1.15,1.15,0,0,1,496.75,265.88Z"/><path class="cls-24" d="M484,265.88H425.2a1.57,1.57,0,0,1-1.51-1.15l-12-43.34a1.51,1.51,0,0,1,1.45-1.91H470a3,3,0,0,1,2.85,2.16l12,43.19A.84.84,0,0,1,484,265.88Z"/><path class="cls-25" d="M481.91,265.88H423.07a1.57,1.57,0,0,1-1.51-1.15l-12-43.34a1.51,1.51,0,0,1,1.45-1.91h56.89a3,3,0,0,1,2.85,2.16l12,43.19A.83.83,0,0,1,481.91,265.88Z"/><path class="cls-26" d="M248.73,237.87l6.82-7a18.33,18.33,0,0,1,.6-3.78c.37-.65,1.33-3.09,1.81-3.35a2.42,2.42,0,0,1,1.43,0,6.6,6.6,0,0,1,1.37-.32,4,4,0,0,1,1.22.39s1-.07,1.45-.07a.91.91,0,0,1,.56.12,29.86,29.86,0,0,1,2.44-2.53c.79-.64,2-1.81,2.37-1.8s.49.6.24,1.24a7.27,7.27,0,0,1-1.32,1.66l-3.11,4.7a7.78,7.78,0,0,0,.82-.38c.28-.18,2.17-2,2.29-2s1-.64,1.46-.07-3.26,5-3.86,5.65a33,33,0,0,1-4,2.35s-3.64,6.54-4,7S248.73,237.87,248.73,237.87Z"/><path class="cls-26" d="M255.14,205.62s-3.8,22-7.38,22.57c0,0-14.31.57-17.5-16.78-2.76-15,8.33-18.26,13.51-17.11S256.26,196.2,255.14,205.62Z"/><path class="cls-26" d="M242.5,224.66s-2,2.7-2.7,9.24a21.18,21.18,0,0,1-11.45-2,81,81,0,0,0,3.32-19.25"/><path class="cls-17" d="M238.47,190.61c-7.82,1.73-7.19,6.6-7.19,6.6-3.66.9-4.45,2.41-4.42,9.17s2.47,14.87,3.82,15.53,9,.69,9.63.46,3.31-6.43,2.69-7.52,0-5.38,1.81-5.54,1.43,2.59,1.43,2.59l1.47-.32,1.12-2.77c10.33.62,13-11.15,13-11.15C259.35,196,246.29,188.88,238.47,190.61Z"/><path class="cls-19" d="M151.69,339.89,159.6,341,157,350.27l-8.56-2.16a5.57,5.57,0,0,1,1.78-8.22A3,3,0,0,1,151.69,339.89Z"/><path class="cls-25" d="M210.69,316.19,199,280.91s-3.53-1.25-5.34,0c0,0-12.14,6.53-10.84,25.14,1,14,3.94,29.24,5.14,35.34l-31.09-1.15a10.6,10.6,0,0,0-1.35,10.49s39.06,10.51,44.56,11.48c4.47.79,9.36,1.4,11.72-.63C216,358,210.69,316.19,210.69,316.19Z"/><path class="cls-19" d="M188.5,339.89l7.9,1.15-2.62,9.23-8.56-2.16a5.57,5.57,0,0,1,1.78-8.22A3,3,0,0,1,188.5,339.89Z"/><path class="cls-27" d="M185.63,344.73c-.18,1.82,1.41,3.46,1.12,3.91s-5.61,9.37-5.61,9.37,4,1.74,3.37,4.27H174.35a8.47,8.47,0,0,1-2.59-5.83,29.59,29.59,0,0,1,2.5-7.44l5.94-11.38a5.75,5.75,0,0,1,3.38.07,20.52,20.52,0,0,1,4.92,2.19S186.06,340.24,185.63,344.73Z"/><path class="cls-28" d="M267,354.17c-2.51-9.36-26.11-49.31-34.09-60.1C216.51,287,199,280.91,199,280.91c-7.23,1.73-10.79,16.29-6.69,26,2.81,6.66,20.65,23.43,31.58,33.29l-30.32,0s-3.57,5.34-.33,10.41c0,0,50.42,11.46,54.84,12.11s14.35,0,14.35,0S269.11,362.05,267,354.17Z"/><path class="cls-27" d="M148.83,344.73c-.18,1.82,1.41,3.46,1.12,3.91s-5.61,9.37-5.61,9.37,4,1.74,3.37,4.27H137.55a8.47,8.47,0,0,1-2.59-5.83,29.59,29.59,0,0,1,2.5-7.44l5.93-11.38a5.79,5.79,0,0,1,3.39.07,20.34,20.34,0,0,1,4.91,2.19S149.26,340.24,148.83,344.73Z"/><path class="cls-26" d="M305,231.08,288.7,259.69l-11.65-11.61-9.64,14.35,2.8,1.34-1,.84s22.48,10.94,25.17,8.53,15.24-38.8,15.24-38.8Z"/><path class="cls-29" d="M279.13,249.9s-3.07,13-9.21,19.09l-15.71-6s-7.29,12.26-14.42,21.66c-2.74,3.63-3.65,8.74-6.87,9.41-.2-.07-.39-.13-.59-.18-8.73-2.62-21.61.16-32.24-3.79-11.74-4.37-9.46-6.83-9.46-6.83a151.65,151.65,0,0,0,11.16-26.42,162,162,0,0,0,3.88-15.93,18.34,18.34,0,0,1,15.44-14.77l.26,0c8.9-1.13,32.2,1.62,36.73,3.56S279.13,249.9,279.13,249.9Z"/><path class="cls-30" d="M254.21,263s-7.29,12.26-14.42,21.66c-2.74,3.63-3.65,8.74-6.87,9.41,1.41-.5,3.75-7.92,4.58-9.59s2.17-3.33,5.05-9.16,6.76-14.4,6.76-14.4Z"/><path d="M223.93,340.2a26.82,26.82,0,0,1,8,0,29.5,29.5,0,0,1,3.93.82,20.28,20.28,0,0,1,3.74,1.46l-3.92-.65c-1.3-.2-2.6-.41-3.9-.57C229.18,340.86,226.58,340.58,223.93,340.2Z"/><path class="cls-26" d="M317.11,220.56a15,15,0,0,0-2.73,2l.92-1.78a17.11,17.11,0,0,0,1.67-1.83c.44-.65.21-1.3-.14-1.34a13.85,13.85,0,0,0-2.56,1.84l.19-.36a17.81,17.81,0,0,0,1.66-1.84c.45-.65.21-1.3-.13-1.33s-3.17,2.33-3.17,2.33l-1.38,1.84,1-2a9.44,9.44,0,0,0,.91-1.39c.36-.73.1-.95-.1-1.2s-2.1,1.18-2.59,1.74a30.62,30.62,0,0,0-2.14,3.18L307,223.67c-.1-.95-.26-2.58-.37-3.62-.16-1.49-1.51-1.85-1.56-1.12s-.8,4.3-.63,6.24.49,3.21.61,4.3-1,3.27-1,3.27,4.53,2.81,5.28,2a35.54,35.54,0,0,0,3.11-4,20.93,20.93,0,0,0,1.77-4l1.41-3a17.54,17.54,0,0,0,1.67-1.84C317.69,221.24,317.46,220.59,317.11,220.56Z"/><path class="cls-31" d="M576.86,129.48H523.8a6.16,6.16,0,0,0-6.16,6.16v12.53a6.15,6.15,0,0,0,5.38,6.11.9.9,0,0,1,.78.88V162a.4.4,0,0,0,.73.23l5.41-7.55a.89.89,0,0,1,.73-.38h46.19a6.16,6.16,0,0,0,6.16-6.16V135.64A6.16,6.16,0,0,0,576.86,129.48Z"/><path class="cls-31" d="M531.94,141.89a2,2,0,1,1-2-2A2,2,0,0,1,531.94,141.89Z"/><path class="cls-31" d="M542.15,141.89a2,2,0,1,1-2-2A2,2,0,0,1,542.15,141.89Z"/><path class="cls-31" d="M552.35,141.89a2,2,0,1,1-2-2A2,2,0,0,1,552.35,141.89Z"/><path class="cls-31" d="M562.56,141.89a2,2,0,1,1-2-2A2,2,0,0,1,562.56,141.89Z"/><path class="cls-31" d="M572.77,141.89a2,2,0,1,1-2-2A2,2,0,0,1,572.77,141.89Z"/><path class="cls-31" d="M157.56,184.44h53.06a6.15,6.15,0,0,1,6.16,6.15v12.54a6.16,6.16,0,0,1-5.38,6.11.88.88,0,0,0-.78.88V217a.41.41,0,0,1-.74.24l-5.4-7.56a.91.91,0,0,0-.73-.37H157.56a6.16,6.16,0,0,1-6.16-6.16V190.59A6.15,6.15,0,0,1,157.56,184.44Z"/><path class="cls-31" d="M202.48,196.84a2,2,0,1,0,2-2A2,2,0,0,0,202.48,196.84Z"/><path class="cls-31" d="M192.27,196.84a2,2,0,1,0,2-2A2,2,0,0,0,192.27,196.84Z"/><path class="cls-31" d="M182.06,196.84a2,2,0,1,0,2-2A2,2,0,0,0,182.06,196.84Z"/><path class="cls-31" d="M171.85,196.84a2,2,0,1,0,2-2A2,2,0,0,0,171.85,196.84Z"/><path class="cls-31" d="M161.64,196.84a2,2,0,1,0,2-2A2,2,0,0,0,161.64,196.84Z"/><path class="cls-32" d="M478,100.56H381.31a9.66,9.66,0,0,1-9.66-9.66h0a9.67,9.67,0,0,1,9.66-9.66H478a9.66,9.66,0,0,1,9.65,9.66h0A9.65,9.65,0,0,1,478,100.56Z"/><path class="cls-33" d="M476.61,90.24a5.14,5.14,0,1,1-5.14-5.14A5.14,5.14,0,0,1,476.61,90.24Z"/><line class="cls-34" x1="475.1" y1="93.87" x2="477.94" y2="96.7"/><rect class="cls-35" x="299.48" y="323.49" width="39.75" height="39.75" rx="7.71"/><rect class="cls-36" x="292.24" y="323.49" width="39.75" height="39.75" rx="7.71"/><path class="cls-4" d="M307.41,335.86l11.41,6.59a1.05,1.05,0,0,1,0,1.83l-11.41,6.58a1.05,1.05,0,0,1-1.58-.91V336.77A1.05,1.05,0,0,1,307.41,335.86Z"/><rect class="cls-37" x="541.32" y="311.28" width="51.96" height="51.96" rx="10.08"/><rect class="cls-37" x="531.85" y="311.28" width="51.96" height="51.96" rx="10.08"/><path class="cls-4" d="M564.07,324a6.24,6.24,0,1,1-6.24-6.24A6.24,6.24,0,0,1,564.07,324Z"/><path class="cls-4" d="M570.84,343v7.66a1.39,1.39,0,0,1-1.5,1.25h-23a1.39,1.39,0,0,1-1.5-1.25V343c0-6,5.82-10.8,13-10.8h0C565,332.15,570.84,337,570.84,343Z"/><path class="cls-13" d="M441.63,111.69H421.2a1.54,1.54,0,0,1-1.53-1.54h0a1.53,1.53,0,0,1,1.53-1.53h20.43a1.53,1.53,0,0,1,1.54,1.53h0A1.54,1.54,0,0,1,441.63,111.69Z"/><path class="cls-13" d="M462.07,111.69H447.29a1.54,1.54,0,0,1-1.54-1.54h0a1.53,1.53,0,0,1,1.54-1.53h14.78a1.52,1.52,0,0,1,1.53,1.53h0A1.53,1.53,0,0,1,462.07,111.69Z"/><path class="cls-13" d="M429.88,118.44H421.2a1.54,1.54,0,0,1-1.53-1.54h0a1.53,1.53,0,0,1,1.53-1.53h8.68a1.53,1.53,0,0,1,1.54,1.53h0A1.54,1.54,0,0,1,429.88,118.44Z"/><path class="cls-13" d="M462.07,118.44H435a1.54,1.54,0,0,1-1.54-1.54h0a1.53,1.53,0,0,1,1.54-1.53h27a1.52,1.52,0,0,1,1.53,1.53h0A1.53,1.53,0,0,1,462.07,118.44Z"/><path class="cls-13" d="M448.13,125.19H421.2a1.54,1.54,0,0,1-1.53-1.54h0a1.53,1.53,0,0,1,1.53-1.53h26.93a1.53,1.53,0,0,1,1.54,1.53h0A1.54,1.54,0,0,1,448.13,125.19Z"/><path class="cls-13" d="M462.07,125.19h-8.68a1.54,1.54,0,0,1-1.54-1.54h0a1.53,1.53,0,0,1,1.54-1.53h8.68a1.52,1.52,0,0,1,1.53,1.53h0A1.53,1.53,0,0,1,462.07,125.19Z"/><rect class="cls-38" x="107.81" y="224.83" width="78.96" height="43.65" rx="3.82"/><line class="cls-39" x1="111.16" y1="230.73" x2="183.41" y2="230.73"/><circle class="cls-4" cx="181.51" cy="227.73" r="0.87"/><circle class="cls-4" cx="176.94" cy="227.73" r="0.87"/><circle class="cls-4" cx="172.38" cy="227.73" r="0.87"/><path class="cls-40" d="M124.63,236.6H112.37a1.21,1.21,0,0,1-1.21-1.2h0a1.21,1.21,0,0,1,1.21-1.21h12.26a1.21,1.21,0,0,1,1.21,1.21h0A1.21,1.21,0,0,1,124.63,236.6Z"/><path class="cls-40" d="M124.63,242.19H112.37a1.21,1.21,0,0,1-1.21-1.21h0a1.21,1.21,0,0,1,1.21-1.21h12.26a1.21,1.21,0,0,1,1.21,1.21h0A1.21,1.21,0,0,1,124.63,242.19Z"/><path class="cls-40" d="M124.63,247.77H112.37a1.21,1.21,0,0,1-1.21-1.21h0a1.21,1.21,0,0,1,1.21-1.21h12.26a1.21,1.21,0,0,1,1.21,1.21h0A1.21,1.21,0,0,1,124.63,247.77Z"/><path class="cls-40" d="M124.63,253.35H112.37a1.21,1.21,0,0,1-1.21-1.2h0a1.21,1.21,0,0,1,1.21-1.21h12.26a1.21,1.21,0,0,1,1.21,1.21h0A1.21,1.21,0,0,1,124.63,253.35Z"/><path class="cls-40" d="M124.63,258.94H112.37a1.21,1.21,0,0,1-1.21-1.21h0a1.21,1.21,0,0,1,1.21-1.21h12.26a1.21,1.21,0,0,1,1.21,1.21h0A1.21,1.21,0,0,1,124.63,258.94Z"/><path class="cls-40" d="M124.63,264.52H112.37a1.21,1.21,0,0,1-1.21-1.21h0a1.21,1.21,0,0,1,1.21-1.21h12.26a1.21,1.21,0,0,1,1.21,1.21h0A1.21,1.21,0,0,1,124.63,264.52Z"/><path class="cls-41" d="M182.21,236.6H129.37a1.21,1.21,0,0,1-1.21-1.2h0a1.21,1.21,0,0,1,1.21-1.21h52.84a1.21,1.21,0,0,1,1.2,1.21h0A1.2,1.2,0,0,1,182.21,236.6Z"/><path class="cls-41" d="M182.21,242.19H129.37a1.21,1.21,0,0,1-1.21-1.21h0a1.21,1.21,0,0,1,1.21-1.21h52.84a1.21,1.21,0,0,1,1.2,1.21h0A1.21,1.21,0,0,1,182.21,242.19Z"/><path class="cls-41" d="M182.21,247.77H129.37a1.21,1.21,0,0,1-1.21-1.21h0a1.21,1.21,0,0,1,1.21-1.21h52.84a1.21,1.21,0,0,1,1.2,1.21h0A1.21,1.21,0,0,1,182.21,247.77Z"/><path class="cls-41" d="M182.21,253.35H129.37a1.21,1.21,0,0,1-1.21-1.2h0a1.21,1.21,0,0,1,1.21-1.21h52.84a1.21,1.21,0,0,1,1.2,1.21h0A1.2,1.2,0,0,1,182.21,253.35Z"/><path class="cls-41" d="M182.21,258.94H129.37a1.21,1.21,0,0,1-1.21-1.21h0a1.21,1.21,0,0,1,1.21-1.21h52.84a1.21,1.21,0,0,1,1.2,1.21h0A1.21,1.21,0,0,1,182.21,258.94Z"/><path class="cls-41" d="M182.21,264.52H129.37a1.21,1.21,0,0,1-1.21-1.21h0a1.21,1.21,0,0,1,1.21-1.21h52.84a1.21,1.21,0,0,1,1.2,1.21h0A1.21,1.21,0,0,1,182.21,264.52Z"/><circle class="cls-1" cx="521.53" cy="32.9" r="32.51" transform="translate(368.03 532.41) rotate(-76.53)"/><circle class="cls-5" cx="521.53" cy="32.9" r="28.26" transform="translate(31.29 213.84) rotate(-23.87)"/><path class="cls-4" d="M524.1,32.9a2.57,2.57,0,1,1-2.57-2.57A2.57,2.57,0,0,1,524.1,32.9Z"/><path class="cls-4" d="M521.25,32.39h0a.79.79,0,0,1-1.09-.31l-8.31-15a.79.79,0,0,1,.31-1.09h0a.79.79,0,0,1,1.09.31l8.32,15A.8.8,0,0,1,521.25,32.39Z"/><path class="cls-4" d="M521.94,33.31h0a.8.8,0,0,1,1.14,0l7.19,7.19a.81.81,0,0,1,0,1.14h0a.81.81,0,0,1-1.14,0l-7.19-7.19A.81.81,0,0,1,521.94,33.31Z"/><line class="cls-42" x1="521.71" y1="10.28" x2="521.71" y2="7.03"/><line class="cls-42" x1="544.15" y1="33.07" x2="547.4" y2="33.07"/><line class="cls-42" x1="521.36" y1="55.52" x2="521.36" y2="58.77"/><line class="cls-42" x1="498.91" y1="32.73" x2="495.66" y2="32.73"/><g class="cls-23"><line class="cls-43" x1="510.37" y1="13.22" x2="508.75" y2="10.41"/><line class="cls-43" x1="541.21" y1="21.74" x2="544.02" y2="20.12"/><line class="cls-43" x1="532.69" y1="52.58" x2="534.32" y2="55.39"/><line class="cls-43" x1="501.86" y1="44.06" x2="499.04" y2="45.69"/></g><g class="cls-23"><line class="cls-43" x1="502.03" y1="21.44" x2="499.21" y2="19.82"/><line class="cls-43" x1="532.99" y1="13.4" x2="534.62" y2="10.58"/><line class="cls-43" x1="541.03" y1="44.36" x2="543.85" y2="45.98"/><line class="cls-43" x1="510.07" y1="52.4" x2="508.45" y2="55.22"/></g><rect class="cls-38" x="90.06" y="141.65" width="54.83" height="54.83" rx="9.57"/><rect class="cls-44" x="85.81" y="136.9" width="54.83" height="54.83" rx="7.67"/><path class="cls-2" d="M122.72,158h-.28V154.9a9.35,9.35,0,1,0-18.7,0V158h-.06a2.62,2.62,0,0,0-2.63,2.62V172.5a2.62,2.62,0,0,0,2.63,2.62h19a2.62,2.62,0,0,0,2.63-2.62V160.66A2.62,2.62,0,0,0,122.72,158Zm-16.61-3.14a7,7,0,1,1,14,0V158h-14Z"/><path class="cls-45" d="M116.28,164.12a3.05,3.05,0,1,0-4.59,2.63.56.56,0,0,1,.28.61l-.53,2a1.83,1.83,0,1,0,3.53,0l-.52-1.93a.55.55,0,0,1,.28-.62A3.06,3.06,0,0,0,116.28,164.12Z"/><path class="cls-2" d="M124.22,179.27h-22a1.13,1.13,0,0,1-1.13-1.12h0a1.14,1.14,0,0,1,1.13-1.13h22a1.14,1.14,0,0,1,1.13,1.13h0A1.13,1.13,0,0,1,124.22,179.27Z"/><path class="cls-2" d="M124.22,183.09h-22a1.14,1.14,0,0,1-1.13-1.13h0a1.13,1.13,0,0,1,1.13-1.12h22a1.13,1.13,0,0,1,1.13,1.12h0A1.14,1.14,0,0,1,124.22,183.09Z"/><path class="cls-13" d="M177.54,158.4H165a1.37,1.37,0,0,1-1.37-1.37h0a1.37,1.37,0,0,1,1.37-1.37h12.5a1.37,1.37,0,0,1,1.37,1.37h0A1.37,1.37,0,0,1,177.54,158.4Z"/><path class="cls-13" d="M190.13,164.48H165a1.37,1.37,0,0,1-1.37-1.37h0a1.37,1.37,0,0,1,1.37-1.37h25.09a1.37,1.37,0,0,1,1.37,1.37h0A1.37,1.37,0,0,1,190.13,164.48Z"/><path class="cls-13" d="M168,170.56h-3a1.37,1.37,0,0,1-1.37-1.37h0a1.37,1.37,0,0,1,1.37-1.37h3a1.38,1.38,0,0,1,1.38,1.37h0A1.37,1.37,0,0,1,168,170.56Z"/><path class="cls-13" d="M190.13,170.56H172.66a1.37,1.37,0,0,1-1.37-1.37h0a1.37,1.37,0,0,1,1.37-1.37h17.47a1.37,1.37,0,0,1,1.37,1.37h0A1.37,1.37,0,0,1,190.13,170.56Z"/><path class="cls-13" d="M190.13,158.4h-7.58a1.38,1.38,0,0,1-1.37-1.37h0a1.37,1.37,0,0,1,1.37-1.37h7.58A1.37,1.37,0,0,1,191.5,157h0A1.37,1.37,0,0,1,190.13,158.4Z"/><path class="cls-4" d="M119.65,345.32a8.68,8.68,0,0,0-4.46,1.23,9.34,9.34,0,0,0-18.63,1.05,8.6,8.6,0,0,0,.06,1,7.2,7.2,0,0,0-1.32-.12,7.14,7.14,0,1,0,0,14.27h24.35a8.73,8.73,0,1,0,0-17.45Z"/><path class="cls-46" d="M57.71,307.85a9.14,9.14,0,0,1,.13-3.93,38.89,38.89,0,0,0-.44-21.14c-4.67-14.58-23.61-27.5-23.61-27.5S38.93,276.8,43.16,286c3.09,6.71,8.5,14.34,11.5,18.36a9,9,0,0,1,1.66,3.77,156.43,156.43,0,0,1,2.6,30.26l1.43.05A159.83,159.83,0,0,0,57.71,307.85Z"/><path class="cls-47" d="M72.8,294.13a169.1,169.1,0,0,0,5.51-25.89s-17,14-18.36,24.84a36.38,36.38,0,0,0,1.16,15.09,10.41,10.41,0,0,1,.4,4.11,142.79,142.79,0,0,0-.35,28.36l1.27-.15a141.57,141.57,0,0,1,.2-26.62A10.7,10.7,0,0,1,65,308.24,44.3,44.3,0,0,0,72.8,294.13Z"/><path class="cls-48" d="M90.06,267.68S71.77,274.47,67,289.41a39.83,39.83,0,0,0-.4,21.84,7.44,7.44,0,0,1,0,3.72,168,168,0,0,0-4.35,35.22h1.46a166.89,166.89,0,0,1,4.2-34.46,13.2,13.2,0,0,1,2.17-4.63c3.12-4.2,8.43-11.76,11.51-18.43C85.89,283.28,90.06,267.68,90.06,267.68Z"/><path class="cls-49" d="M57.79,330.7a50.73,50.73,0,0,0-4.23-16.6,5.64,5.64,0,0,1-.42-3,27.51,27.51,0,0,0-.43-8.92C51.22,294.84,41.5,279,27.42,278.08a102.28,102.28,0,0,1,7.36,14.35c3.16,8.27,7.67,16.92,15.16,20.23a5.65,5.65,0,0,1,2.9,3,49.26,49.26,0,0,1,3.66,15.12Z"/><path class="cls-50" d="M48.26,362.77H71.5l6-36.85a2.67,2.67,0,0,0-2.64-3.11h-30a2.67,2.67,0,0,0-2.64,3.11Z"/><line class="cls-51" x1="0.56" y1="362.77" x2="650.78" y2="362.77"/></g></g></svg>